<?xml version="1.0" standalone="no"?>
<!DOCTYPE svg PUBLIC "-//W3C//DTD SVG 20010904//EN"
 "http://www.w3.org/TR/2001/REC-SVG-20010904/DTD/svg10.dtd">
<svg version="1.0" xmlns="http://www.w3.org/2000/svg"
 width="512.000000pt" height="512.000000pt" viewBox="0 0 512.000000 512.000000"
 preserveAspectRatio="xMidYMid meet">
<metadata>
Created by potrace 1.14, written by Peter Selinger 2001-2017
</metadata>
<g transform="translate(0.000000,512.000000) scale(0.100000,-0.100000)"
fill="#000000" stroke="none">
<path d="M2696 4470 c-147 -148 -273 -271 -280 -272 -9 -2 -57 4 -136 17 -40
7 -618 105 -640 109 -14 2 -32 5 -42 5 -9 1 -26 20 -38 46 -100 206 -403 151
-427 -78 -8 -74 28 -153 88 -196 23 -17 48 -31 55 -31 19 0 23 -10 45 -132 11
-62 22 -124 25 -138 2 -14 6 -41 9 -60 3 -19 7 -44 9 -55 5 -27 37 -215 41
-240 1 -11 6 -36 9 -55 21 -113 26 -145 26 -161 0 -9 -123 -139 -272 -289
l-273 -272 45 -40 c67 -58 224 -161 315 -206 280 -139 627 -182 940 -117 680
140 1167 742 1166 1441 -1 50 -3 106 -6 125 -2 19 -7 52 -9 74 -16 138 -72
318 -140 453 -45 89 -145 238 -198 296 l-43 46 -269 -270z m408 -229 c20 -17
72 -177 86 -267 23 -145 23 -171 1 -193 -26 -26 -33 -26 -59 -3 -16 13 -23 33
-27 82 -8 80 -41 228 -66 292 -31 79 10 135 65 89z m-1463 -71 c30 -5 68 -12
84 -14 17 -3 127 -21 245 -41 118 -20 233 -39 255 -41 22 -3 43 -9 48 -13 6
-6 -188 -209 -271 -284 -19 -18 -24 -14 -230 193 -116 115 -205 210 -198 210
7 0 37 -4 67 -10z m49 -332 l187 -187 -150 -151 c-83 -82 -152 -149 -153 -147
-2 1 -28 153 -59 337 -31 184 -58 346 -60 359 l-4 24 26 -24 c14 -13 110 -108
213 -211z m1496 -222 c8 -8 14 -28 14 -45 0 -70 -55 -269 -102 -366 -29 -60
-48 -73 -82 -57 -33 15 -33 43 -2 114 29 66 59 168 80 273 9 43 22 83 29 87
19 12 47 9 63 -6z"/>
<path d="M3148 2801 c-12 -35 -197 -225 -280 -288 -46 -35 -47 -37 -33 -64 8
-15 29 -42 47 -60 121 -120 330 -86 408 67 31 62 34 169 7 225 -38 78 -136
156 -149 120z"/>
<path d="M3257 2276 c-43 -35 -121 -58 -200 -60 l-71 -1 1 -55 c0 -30 1 -58 2
-61 1 -7 421 -7 421 0 0 9 -115 201 -120 200 -3 0 -18 -10 -33 -23z"/>
<path d="M2793 1987 c-5 -8 -46 -182 -59 -247 -3 -14 -17 -72 -30 -130 -14
-58 -27 -113 -29 -124 -3 -10 -18 -80 -36 -155 -17 -75 -32 -143 -34 -151 -2
-8 -24 -105 -50 -215 -25 -110 -48 -212 -52 -227 l-5 -28 707 0 707 0 -6 23
c-3 12 -30 128 -60 257 -30 129 -89 381 -131 560 -92 390 -84 357 -91 400 -3
19 -8 37 -10 40 -9 8 -816 5 -821 -3z m767 -257 c14 -22 12 -56 -4 -69 -10 -8
-113 -12 -352 -12 -335 0 -339 1 -356 22 -23 27 -22 35 2 59 19 19 31 20 360
18 290 -3 342 -5 350 -18z m70 -340 c24 -13 26 -52 4 -74 -13 -14 -66 -16
-430 -16 -401 0 -415 1 -434 20 -24 24 -25 32 -2 59 21 26 42 27 499 24 223
-1 350 -6 363 -13z m84 -349 c23 -19 17 -63 -10 -76 -13 -7 -193 -10 -512 -10
-478 0 -492 1 -506 20 -16 22 -11 54 11 70 9 7 188 10 507 10 409 0 496 -3
510 -14z"/>
<path d="M2180 495 l0 -115 1023 0 1022 0 -1 108 c-1 59 -2 110 -3 115 0 4
-460 7 -1021 7 l-1020 0 0 -115z"/>
</g>
</svg>
